<svg width="200" height="200" viewBox="0 0 200 200" fill="none" xmlns="http://www.w3.org/2000/svg">
<path d="M79.7361 47.1955C77.849 47.6676 75.8982 48.8309 74.5144 50.3095C73.7596 51.1281 71.3366 54.7764 69.1358 58.4575L65.1084 65.1267L46.486 65.2199C28.0221 65.3146 27.8636 65.3146 26.354 66.0074C24.3721 66.9501 21.856 69.342 20.8496 71.2912L20 72.8646V112.658V152.45L20.8496 154.023C21.9508 156.162 23.9016 158.049 26.0713 159.119L27.8653 160H100.058H172.252L173.982 159.15C176.121 158.113 178.197 156.098 179.298 154.023L180.115 152.45V112.656V72.8646L179.266 71.2912C178.259 69.3404 175.743 66.9501 173.761 66.0057C172.252 65.313 172.095 65.313 153.629 65.2199L135.005 65.1267L130.98 58.4575C126.544 51.0644 125.065 49.241 122.423 47.9503L120.662 47.0697L100.687 47.0059C89.709 46.9749 80.272 47.0697 79.7361 47.1955ZM119.404 54.6506C120.285 55.0591 121.26 56.5067 125.255 63.1433C127.897 67.5481 130.382 71.4497 130.823 71.7944C131.578 72.3613 132.27 72.3924 150.767 72.3924C167.88 72.3924 170.08 72.4561 171.025 72.8956C173.163 73.902 173.038 71.3222 173.038 112.656C173.038 153.991 173.163 151.411 171.025 152.417C170.049 152.89 164.104 152.921 100.09 152.921C40.4163 152.921 30.0366 152.857 29.1233 152.479C26.9536 151.568 27.0794 154.21 27.0794 112.655C27.0794 71.3206 26.9536 73.9004 29.0923 72.894C30.035 72.4561 32.2374 72.3924 49.3485 72.3924C67.8451 72.3924 68.5378 72.3613 69.2927 71.7944C69.7338 71.448 72.2189 67.5791 74.8608 63.1433C78.6986 56.7256 79.8619 55.0591 80.6494 54.6506C81.5301 54.2111 84.0151 54.1474 99.9956 54.1474C116.069 54.1474 118.491 54.2111 119.404 54.6506Z" fill="black"/>
<path d="M95.653 72.7388C88.3237 73.5883 80.6169 77.2367 75.0488 82.4911C56.4574 100.076 61.1449 130.526 84.1394 141.757C90.1797 144.714 96.5337 145.908 103.296 145.312C117.515 144.116 130.097 134.239 134.628 120.682C141.988 98.599 127.142 75.3202 104.053 72.742C100.656 72.3613 99.0514 72.3613 95.653 72.7388ZM105.972 80.4455C111.32 81.5467 116.195 84.1576 120.285 88.0902C124.31 91.9591 127.08 96.7414 128.433 102.151C129.408 106.084 129.408 111.996 128.433 115.898C125.632 127.16 116.385 135.778 104.966 137.791C102.545 138.232 97.5728 138.232 95.1514 137.791C83.7016 135.778 74.5162 127.191 71.6847 115.898C70.6783 111.934 70.7093 105.737 71.7158 101.963C73.0375 96.9292 75.3641 92.714 78.7935 89.0967C83.1967 84.504 88.1047 81.7036 94.0813 80.4455C96.9127 79.8165 102.984 79.8165 105.972 80.4455Z" fill="black"/>
<path d="M96.2835 87.3975C94.6791 87.6491 91.3445 88.8451 89.678 89.7257C83.0397 93.2482 78.3539 100.829 78.2281 108.191C78.197 110.487 78.197 110.519 79.3603 111.588C80.6494 112.751 81.9712 112.972 83.355 112.248C84.7389 111.555 85.2732 110.423 85.5885 107.655C86.0917 103.283 88.0115 99.8228 91.3445 97.3687C93.6416 95.6696 95.9372 94.7889 99.146 94.4426C101.914 94.1272 102.669 93.6877 103.425 91.9575C104.085 90.3841 103.363 88.3712 101.883 87.6164C101.095 87.2096 98.1396 87.0838 96.2835 87.3975Z" fill="black"/>
<path d="M143.091 80.006C142.526 80.1008 141.676 80.635 141.204 81.1693C140.323 82.1447 140.323 82.1757 140.323 86.8942C140.323 92.147 140.575 93.0914 142.211 93.941C143.563 94.6337 162.563 94.6337 163.916 93.941C165.52 93.0914 165.803 92.116 165.803 87.1148C165.803 82.3015 165.615 81.5467 164.23 80.5092C163.506 79.975 162.656 79.9113 153.786 79.8492C148.47 79.8165 143.656 79.8786 143.091 80.006Z" fill="black"/>
</svg>
